<?xml version="1.0" ?><!DOCTYPE svg  PUBLIC '-//W3C//DTD SVG 1.1//EN'  'http://www.w3.org/Graphics/SVG/1.1/DTD/svg11.dtd'><!-- Uploaded to: SVG Repo, www.svgrepo.com, Generator: SVG Repo Mixer Tools -->
<svg fill="#000000" width="800px" height="800px" viewBox="0 0 512 512" enable-background="new 0 0 512 512" id="cabin_x5F_crew" version="1.1" xml:space="preserve" xmlns="http://www.w3.org/2000/svg" xmlns:xlink="http://www.w3.org/1999/xlink"><path d="M130.889,448.408h3.014v15.027h40.185H256h85.392h0.111h40.073v-15.027h-0.465c7.246,0,12.773-6.502,11.576-13.648  c-0.121-0.721-0.252-1.46-0.378-2.193l0.005,0.006c-0.031-0.189-0.072-0.391-0.104-0.581c-0.283-1.642-0.594-3.331-0.908-5.028  c-2.139-11.529-5.02-24.281-8.725-37.979c-0.214-0.791-0.433-1.588-0.652-2.386c-0.508-1.851-1.03-3.717-1.568-5.6  c-0.637-2.219-1.279-4.444-1.958-6.707c-0.137-0.458-0.28-0.922-0.419-1.382c-0.862-2.844-1.746-5.71-2.677-8.616  c-3.035-9.489-7.793-18.23-13.935-25.854c-4.552,1.232-27.466,7.149-55.926,9.628c-7.74,0.674-15.881,1.097-24.181,1.097  c-31.095,0-64.294-5.871-86.047-26.237c-7.616,5.025-25.062,15.178-48.331,20.559c-4.347,6.356-7.801,13.35-10.187,20.808  c-8.509,26.598-14.117,50.964-17.385,70.466C118.115,441.906,123.643,448.408,130.889,448.408z M300.397,380.785  c0-2.85,2.311-5.16,5.159-5.16h28.216h12.25c2.85,0,5.16,2.311,5.16,5.16v6.693c0,1.415-0.572,2.695-1.495,3.629  c-0.936,0.943-2.231,1.531-3.665,1.531h-40.466c-2.849,0-5.159-2.311-5.159-5.16V380.785z M191.9,427.376  c12.589,6.59,35.882,12.772,62.215-9.55c1.715-1.453,4.243-1.453,5.959,0c26.333,22.322,49.625,16.14,62.215,9.551  c2.27-1.188,4.576,1.573,2.959,3.561c-24.08,29.575-55.769,13.922-65.314,8.14c-1.745-1.058-3.934-1.058-5.678,0  c-9.546,5.782-41.234,21.436-65.314-8.14C187.323,428.95,189.63,426.188,191.9,427.376z"/><path d="M124.61,326.775c5.157,2.579,13.867,5.297,26.175,3.762c4.078-1.167,7.926-2.472,11.514-3.844  c14.869-5.688,25.249-12.477,28.754-14.931c0.826-0.577,1.275-0.918,1.308-0.942c1.203-0.925,2.664-1.301,4.077-1.165  c1.367,0.132,2.689,0.742,3.688,1.819c21.554,23.254,60.268,27.428,94.078,25.661c24.946-1.304,47.219-5.838,57.958-8.34  c1.049-0.244,1.981-0.468,2.802-0.668c0.011-0.689-0.065-1.392-0.316-2.087c-3.496-9.711-14.373-27.386-47.817-33.865  c0,0,1.577-10.088-2.291-19.299c-4.085,2.19-8.353,4.184-12.789,5.945c-12.016,4.771-24.466,7.139-36.733,7.139  c-16.127,0-31.93-4.113-46.051-12.197c-0.003,0.016-0.006,0.029-0.009,0.045c-0.261-0.167-0.529-0.318-0.793-0.479  c-0.014-0.008-0.027-0.015-0.04-0.021c-0.459-0.27-0.892-0.538-1.333-0.807c-9.659-5.41-21.184-7-32.19-4.238  c-9.614,2.412-21.376,5.572-28.995,8.35c-3.367,1.227-4.452,5.426-2.093,8.124c2.614,2.991,6.765,6.681,13.004,9.749  c-3.289,1.355-6.444,3.107-9.376,5.265c-7.983,5.874-17.671,13.255-23.67,18.712C120.818,320.875,121.405,325.172,124.61,326.775z"/><path d="M188.342,171.926c6.988-2.777,12.58-6.75,17.041-11.279c15.275-15.504,17.401-37.347,17.521-38.764  c0.218-2.571,2.113-4.692,4.645-5.192c2.545-0.494,5.089,0.734,6.266,3.028c0.91,1.75,17.648,32.765,62.615,48.817  c8.135,2.904,17.17,5.329,27.229,6.99c5.873,0.97,12.121,1.653,18.69,2.058c3.298-6.248,5.174-13.363,5.174-20.92v-17.673  c0-49.942-40.486-90.428-90.428-90.428h-0.001c-49.941,0-90.427,40.486-90.427,90.428v18.551c0,6.527,1.433,12.717,3.981,18.288  C177.376,175.355,183.227,173.958,188.342,171.926z"/><path d="M182.264,228.347h8.336c3.439,12.994,10.647,24.449,20.385,33.136c0.947,0.61,1.933,1.227,2.986,1.845  c0.001,0,0.002,0.001,0.004,0.002c21.926,12.857,48.721,14.586,73.504,4.742c3.475-1.38,6.815-2.93,10.045-4.596  c1.078-0.556,2.131-1.135,3.178-1.721c9.896-8.72,17.223-20.277,20.699-33.409h8.181c11.118,0,20.13-9.012,20.13-20.13v-1.759  c0-7.467-4.075-13.97-10.114-17.445c-1.819-0.13-3.618-0.277-5.387-0.45c-3.616-0.355-7.144-0.785-10.552-1.312  c-1.325-0.204-2.617-0.435-3.911-0.664c-49.179-8.683-76.148-34.367-88.258-49.719c-4.558,15.314-15.865,38.775-43.147,47.391  c-3.302,1.043-6.834,1.871-10.62,2.438c0.039,0.044,0.076,0.09,0.116,0.134c-8.985,2.019-15.703,10.031-15.703,19.626v1.759  C162.135,219.335,171.146,228.347,182.264,228.347z M278.617,226.761c1.51,0,2.732,1.223,2.732,2.732c0,14-11.35,25.35-25.35,25.35  s-25.35-11.35-25.35-25.35c0-1.509,1.223-2.732,2.731-2.732H278.617z M285.297,191.362c3.637,0,6.585,2.948,6.585,6.584  c0,1.333-0.403,2.57-1.085,3.607c-1.177,1.791-3.197,2.977-5.5,2.977s-4.323-1.187-5.5-2.977c-0.682-1.037-1.084-2.274-1.084-3.607  C278.713,194.311,281.66,191.362,285.297,191.362z M226.703,191.362c3.636,0,6.584,2.948,6.584,6.584  c0,1.333-0.402,2.57-1.084,3.607c-1.177,1.791-3.197,2.977-5.5,2.977s-4.323-1.187-5.5-2.977c-0.682-1.037-1.085-2.274-1.085-3.607  C220.118,194.311,223.066,191.362,226.703,191.362z"/></svg>